<?xml version="1.0" encoding="UTF-8" standalone="no"?>
<!-- Created with Inkscape (http://www.inkscape.org/) -->

<svg
   width="210mm"
   height="297mm"
   viewBox="0 0 210 297"
   version="1.1"
   id="svg1"
   xml:space="preserve"
   inkscape:version="1.4.4 (dcaf3e7, 2026-05-05)"
   sodipodi:docname="logo.svg"
   xmlns:inkscape="http://www.inkscape.org/namespaces/inkscape"
   xmlns:sodipodi="http://sodipodi.sourceforge.net/DTD/sodipodi-0.dtd"
   xmlns="http://www.w3.org/2000/svg"
   xmlns:svg="http://www.w3.org/2000/svg"><sodipodi:namedview
     id="namedview1"
     pagecolor="#ffffff"
     bordercolor="#000000"
     borderopacity="0.25"
     inkscape:showpageshadow="2"
     inkscape:pageopacity="0.0"
     inkscape:pagecheckerboard="0"
     inkscape:deskcolor="#d1d1d1"
     inkscape:document-units="mm"
     inkscape:zoom="0.65431623"
     inkscape:cx="489.06016"
     inkscape:cy="491.35263"
     inkscape:window-width="1408"
     inkscape:window-height="894"
     inkscape:window-x="62"
     inkscape:window-y="34"
     inkscape:window-maximized="1"
     inkscape:current-layer="layer1" /><defs
     id="defs1" /><g
     inkscape:label="Layer 1"
     inkscape:groupmode="layer"
     id="layer1"><path
       style="fill:#4070c7;stroke:none"
       d="m 102.62025,83.810068 c -6.054509,0.794967 -11.794229,1.307791 -17.638889,3.337232 -14.10372,4.897226 -26.27131,15.98918 -32.76274,29.39625 -13.01857,26.88792 -3.23862,60.23481 22.53218,75.56427 5.64211,3.35614 11.91022,5.76168 18.34445,7.05623 5.83605,1.17422 12.255709,1.53063 18.168049,0.76041 2.40453,-0.31323 4.70926,-1.08629 7.05488,-1.62342 3.70774,-0.84906 7.07046,-1.52917 10.58401,-3.14248 20.1522,-9.25324 33.50088,-30.30471 34.04047,-52.33306 0.66357,-27.08934 -19.46456,-52.399494 -46.03491,-57.714424 -4.55067,-0.91028 -9.63329,-1.912114 -14.2875,-1.301008 m 51.50555,0.454311 c 2.82873,6.058787 7.28089,10.892087 13.40556,13.581947 0.14091,-1.23107 -1.12265,-2.24045 -1.58546,-3.35139 -2.09885,-5.03813 -6.36069,-8.933812 -11.8201,-10.230557 M 41.589691,98.199106 c 1.59493,-0.23997 2.92437,-1.41626 4.23334,-2.2932 3.80502,-2.54917 8.0379,-6.666249 9.87777,-10.935971 -1.17076,0.211281 -2.25682,0.967501 -3.35138,1.437649 -4.8549,2.085327 -9.80493,6.246432 -10.75973,11.791522 m 61.736109,-7.88714 c 4.96221,-0.585495 10.40585,0.67664 15.16945,1.93674 23.29241,6.16145 39.37027,29.115204 37.73144,53.046234 -1.7101,24.97178 -21.0469,45.68331 -46.02172,48.47755 -6.21321,0.69515 -12.827249,0.23388 -18.873609,-1.3613 -5.69162,-1.50158 -11.18889,-4.03687 -16.05139,-7.34137 -24.23113,-16.46719 -29.41036,-50.66971 -12.39214,-74.17071 6.94712,-9.5935 18.24166,-16.536284 29.67825,-19.246804 3.58173,-0.84889 7.13894,-0.91312 10.759719,-1.34034 m 66.32223,0.4788 c 0.16253,1.80433 1.49408,3.3989 2.05351,5.11528 0.9156,2.80912 1.07126,5.569354 2.39936,8.290284 0.43098,0.88296 2.05538,3.87105 0.30622,4.26573 -1.50015,0.33849 -3.64014,-2.31432 -4.58271,-3.19161 -1.95361,-1.81835 -4.21523,-2.16379 -6.35,-3.53812 -1.29236,-0.832 -2.063,-2.129494 -3.70416,-2.298504 0.32403,1.816624 1.84268,3.609724 3.18194,4.810274 3.06341,2.74613 6.80483,5.18963 10.22361,7.47434 1.34149,0.89649 2.74347,2.81916 4.23334,3.23761 -0.0209,-2.52158 -0.28844,-5.06391 -0.3502,-7.58472 -0.0726,-2.96459 0.10191,-6.18965 -1.02961,-8.995834 -0.80112,-1.9868 -2.24996,-3.61199 -3.73479,-5.11528 -0.85834,-0.86901 -1.54563,-1.89797 -2.64651,-2.46945 m -119.238889,8.46667 c -1.64509,0.39092 -2.73357,1.943554 -4.05695,2.886054 -2.0982,1.49434 -4.55485,1.9962 -6.52639,3.83251 -0.82992,0.77301 -1.59317,1.61793 -2.12007,2.63005 -0.20141,0.38691 -0.38775,1.167 -0.91365,1.22819 -1.77586,0.20665 -1.75146,-3.25219 -1.47685,-4.2268 0.96675,-3.43108 2.05821,-7.060274 3.28524,-10.406944 0.50663,-1.38181 1.34847,-2.64752 1.7545,-4.05695 -1.39988,0.44699 -2.32947,1.6463 -3.35139,2.64325 -0.98869,0.96454 -2.00493,1.80786 -2.73988,3.0012 -2.08749,3.389504 -1.63046,7.362044 -2.07298,11.112504 -0.19221,1.62903 -0.35859,3.30058 -0.46288,4.93889 -0.0327,0.51399 -0.0856,1.42944 0.32597,1.8235 0.40337,0.38616 0.94414,-0.14488 1.22982,-0.42287 1.101,-1.07138 2.05396,-1.93759 3.36717,-2.75608 4.94568,-3.08249 11.38132,-6.55625 13.75834,-12.226504 m 34.74861,44.450004 -0.25138,4.09233 -2.21807,1.55905 -5.65832,4.93196 -1.75001,2.29305 c 1.99875,-0.0413 4.01027,-0.61605 5.99722,-0.85458 4.65789,-0.55917 9.31462,-1.10674 13.93473,-1.91742 1.78598,-0.31337 3.6555,-0.42477 5.468049,-0.59259 0.70672,-0.0654 1.48357,-0.29595 2.06046,0.26608 2.03365,1.98127 -3.051409,1.66301 -2.773099,2.92553 1.771239,8.03499 8.107649,15.89931 14.118199,21.19062 1.76076,1.55007 4.67017,4.59296 7.05555,4.91153 l -0.17639,-10.40694 1.5875,1.05833 c 2.83303,-5.17378 3.05328,-11.57498 3.7367,-17.28611 0.57476,-4.8031 1.34051,-9.79458 0.87935,-14.64028 -0.20058,-2.10764 -0.14131,-4.23387 -0.3529,-6.35 -0.0753,-0.75267 0.0357,-1.92188 -0.41403,-2.56934 -0.54187,-0.7802 -3.23417,-0.85545 -4.00278,-0.42438 -0.46243,0.25936 -0.69186,0.99076 -1.26698,1.03275 -0.54619,0.0399 -1.03816,-0.53306 -1.40158,-0.86139 -0.96006,-0.8674 -3.57061,-2.13269 -3.95664,-3.36773 -0.34025,-1.08859 1.05713,-3.0464 1.45126,-4.04047 1.51356,-3.81751 4.11111,-7.11211 6.2844,-10.58333 0.65945,-1.05328 2.34585,-2.73472 2.25114,-4.05436 -0.064,-0.89235 -1.28947,-1.44175 -1.97321,-1.805 -2.14022,-1.13699 -4.36862,-2.14387 -6.70278,-2.80847 -9.27529,-2.64095 -20.183109,-2.44238 -28.751389,2.36791 -11.84459,6.64964 -14.2875,19.82607 -14.2875,32.22909 0,2.78724 0.0403,5.71139 -0.41008,8.46666 -0.0927,0.56728 -0.93972,2.39722 -0.063,2.68313 0.96861,0.31587 2.52132,-1.02932 3.29531,-1.47086 1.45609,-0.83066 2.9174,-1.46043 4.23333,-2.52811 1.34419,-1.0906 2.52282,-2.65081 4.05695,-3.44666 m -58.03196,-38.27639 c -4.96133,6.50683 -5.94633,15.75519 -3.1833,23.28334 0.58439,1.5922 1.50301,3.01766 2.14947,4.58611 0.19039,0.46192 0.35539,1.52829 0.90576,1.70292 0.44687,0.14179 0.8166,-0.35157 1.05425,-0.64813 0.8222,-1.02598 1.51954,-2.05473 2.6016,-2.84059 3.87987,-2.81779 6.26752,-6.94393 8.48137,-11.09059 0.96055,-1.79917 2.10846,-3.56447 2.27835,-5.64445 -4.04507,1.10146 -8.06759,5.96919 -10.72719,8.99584 -0.85458,0.97252 -1.5269,2.12114 -2.27631,3.17486 -0.24062,0.33832 -0.61241,1.02266 -1.11645,0.94714 -2.18022,-0.32666 -1.08194,-4.33564 -0.81145,-5.53311 0.38228,-1.69232 0.60543,-3.55712 0.43757,-5.29167 -0.16666,-1.72228 -0.81522,-3.36205 -0.64567,-5.11528 0.17333,-1.79223 1.54268,-4.86493 0.852,-6.52639 m 154.693059,0 c 0.11882,2.72615 0.59443,5.34413 0.52658,8.11389 -0.0679,2.77239 -0.66958,5.51627 -0.70365,8.29028 -0.0104,0.85047 0.21996,5.28478 -1.0654,5.10466 -1.39167,-0.195 -2.58628,-2.74337 -3.43483,-3.72349 -2.46604,-2.84839 -4.15033,-5.57399 -7.31715,-7.80862 -0.82098,-0.57933 -1.48858,-1.41123 -2.46944,-1.68644 l 4.9793,10.23056 5.55354,6.87916 3.57827,4.40973 c 4.27722,-7.35595 6.44158,-15.32508 3.47348,-23.63612 -0.70687,-1.9793 -1.48329,-4.77092 -3.1207,-6.17361 m -64.91111,13.58195 2.08128,-5.46806 0.66717,-2.09761 -2.0429,-1.29747 -2.11666,-0.30909 c -0.67131,-1.28334 -2.59777,-1.60768 -3.88056,-1.23472 -0.55285,-0.95612 -1.81439,-0.97737 -2.82222,-1.07153 -2.15776,-0.2016 -4.39491,-0.47279 -6.52639,-0.86875 1.10188,-0.66005 2.8099,-0.35277 4.05695,-0.35277 3.93508,0 7.93513,0.49893 11.64166,1.90747 1.08608,0.41272 3.68948,1.21393 4.17835,2.35852 0.32424,0.75913 -0.61566,1.67913 -0.98769,2.2604 -1.27104,1.98583 -2.35184,4.71837 -4.24899,6.17361 m -13.40556,4.7625 c 2.24708,-1.19463 7.44401,0.33728 9.50513,1.56627 0.86386,0.51509 0.60151,2.38964 -0.37061,2.72055 -1.7939,0.61063 -0.96678,-1.75969 -1.7549,-2.2687 -1.93968,-1.25273 -5.14566,-1.55727 -7.37962,-2.01812 m -7.937499,6.87916 c 0.8068,-1.47073 3.08432,-1.93178 4.586109,-2.34287 4.93521,-1.35089 10.68892,0.53074 14.99306,3.34758 1.31324,0.85945 5.95388,3.83473 4.61796,5.68773 -1.29589,1.79745 -3.75068,-2.17868 -4.79435,-3.0227 -3.67972,-2.97581 -8.21994,-5.04324 -13.05278,-4.71229 -2.144389,0.14685 -4.224329,0.9499 -6.349999,1.04255 m 94.191669,-2.46944 c -0.74352,1.82202 -0.62905,3.87424 -1.48217,5.64444 -1.54295,3.2016 -3.72486,5.85828 -4.85151,9.34862 -0.24968,0.77348 -0.60563,5.22744 -1.9434,4.56461 -1.84701,-0.91515 -1.96632,-4.60829 -2.51694,-6.3285 -0.90865,-2.83872 -3.4743,-5.55092 -5.04764,-8.11389 -0.61391,-1.00007 -1.27879,-2.42541 -2.3264,-2.99861 0,8.06126 2.22154,14.7086 6.4284,21.51944 0.77688,1.25776 0.9902,2.86502 1.54449,4.23334 0.17633,0.43526 0.43364,1.37463 1.03438,1.37463 0.74779,0 1.12537,-1.23971 1.48705,-1.72728 1.03043,-1.38907 2.29855,-2.39685 3.26402,-3.88069 3.62469,-5.57085 4.93889,-11.02662 4.93889,-17.63889 0,-1.71065 0.47406,-4.52902 -0.52917,-5.99722 m -170.920829,1.05833 c 0,8.13936 -0.27978,15.59105 4.15847,22.75417 1.02525,1.65469 2.08275,2.98679 3.41046,4.40973 0.42368,0.45406 0.92326,1.30519 1.59621,1.40049 0.72108,0.10213 0.95065,-0.90091 1.14013,-1.40049 0.59321,-1.56402 0.86124,-3.28978 1.66522,-4.76251 1.28288,-2.34998 3.22217,-4.31886 4.41244,-6.70278 1.82944,-3.66406 2.66662,-9.51216 2.66707,-13.58194 -1.26612,1.07451 -2.22007,2.85936 -3.15486,4.23333 -1.9251,2.82954 -3.9852,5.72098 -5.07281,8.99584 -0.41417,1.24707 -1.02093,4.79619 -2.88429,4.66614 -1.87927,-0.13117 -1.40234,-3.95351 -1.72197,-5.19531 -0.9728,-3.77941 -2.99013,-6.94832 -4.66028,-10.40694 -0.66457,-1.37622 -0.64072,-3.18155 -1.55579,-4.40973 m 104.774999,6.70278 c 0.9434,2.23513 0.65109,5.05376 0.54754,7.40833 -0.17355,3.94632 -0.54754,8.04603 -0.54754,11.99445 -1.41119,-0.47089 -0.65226,-2.73046 -0.59532,-3.88056 0.16991,-3.43187 0.29252,-7.79618 -0.63941,-11.1125 -6.96932,6.41865 -14.99945,7.09678 -23.988879,6.87659 -2.75886,-0.0676 -5.62048,-0.52201 -8.29028,-1.2346 -0.58814,-0.15697 -2.75962,-0.58666 -1.93456,-1.65513 0.52524,-0.68021 2.77654,0.0195 3.52206,0.0994 3.5388,0.37887 7.01377,1.20546 10.583329,1.20546 4.76781,0 11.37697,-0.89477 15.34583,-3.81223 2.27398,-1.67157 3.81049,-4.21178 5.99723,-5.88916 m -3.52778,11.81806 c -0.30175,0.65888 -1.08224,2.11452 -1.82133,2.34381 -0.77603,0.24076 -1.3571,-0.73772 -2.05923,-0.86098 -0.89087,-0.15638 -2.04793,1.36595 -2.43297,2.04495 -0.67691,1.19372 1.27437,2.05146 1.7198,2.99861 0.49745,1.05775 -0.79692,3.20929 -1.57988,3.88055 0.003,-1.00006 0.34418,-2.08548 -0.17543,-2.99861 -0.55136,-0.96889 -2.28623,-2.03916 -2.34043,-3.175 -0.0489,-1.02475 1.53369,-2.47799 2.17873,-3.175 0.44475,-0.48058 1.08866,-1.44446 1.76402,-1.59281 1.014,-0.22273 1.71041,1.18084 2.57969,1.44011 0.59432,0.17726 1.57809,-0.69989 2.16703,-0.90563 m 0.52917,1.05833 c -0.0153,0.65435 -0.38643,1.4625 -0.24377,2.08673 0.27147,1.1878 1.35988,1.44643 0.94932,2.85216 h -0.35278 c -1.01864,-1.96358 -2.78652,-3.02913 -0.35277,-4.93889 m -27.340279,1.05833 -7.9375,1.41112 c 1.20144,-1.79475 6.27666,-3.10707 7.9375,-1.41112 m 78.316659,-0.17638 c -0.52462,1.24328 -0.41572,2.72501 -0.57939,4.05694 -0.64504,5.24936 0.40074,9.81083 0.90223,14.99306 0.37896,3.91607 -0.68286,7.3534 -1.38117,11.1125 2.16278,-0.60087 4.1774,-2.54579 5.99736,-3.78896 4.45436,-3.04268 8.54432,-7.04201 11.21089,-11.74905 1.79597,-3.17025 2.7991,-7.2544 3.78203,-10.74394 -1.53606,0.73153 -2.23031,2.66982 -3.38201,3.86464 -1.50014,1.55632 -3.59866,2.04553 -5.03171,3.72009 -2.57824,3.01272 -4.0396,7.27869 -7.63767,9.34861 -0.5344,-2.13387 0.14983,-4.52619 0.17571,-6.70278 0.0473,-3.97392 -1.06435,-7.35388 -2.68571,-10.93611 -0.46259,-1.02205 -0.62497,-2.32924 -1.37056,-3.175 m -134.231939,1.05833 c -2.09318,5.10331 -4.08386,9.5607 -4.05681,15.16945 0.006,1.20087 1.06784,4.96866 -0.21681,5.67411 -1.24322,0.68271 -3.24529,-2.91544 -3.77957,-3.73384 -1.46012,-2.23655 -2.7067,-4.70955 -4.5005,-6.70277 -2.3405,-2.60071 -5.02444,-4.46672 -7.02548,-7.40834 h -0.17639 c -0.3994,1.84903 0.88785,4.09864 1.46978,5.82084 2.26786,6.71165 6.75165,12.54275 12.28856,16.85847 1.78936,1.39472 4.00685,3.92075 6.35,4.1318 0.4952,-2.79186 -1.08441,-6.0165 -0.86602,-8.99583 0.14,-1.91002 0.96057,-3.74064 1.19144,-5.64444 0.59056,-4.86982 0.57322,-10.32907 -0.32542,-15.16945 h -0.35278 m 79.374999,5.46806 c 1.24496,3.67764 0.63455,8.32789 0.89773,12.17083 0.15966,2.33136 0.83664,5.12131 0.1606,7.40833 -3.42675,-1.31813 -7.97814,-6.05195 -9.17222,-9.525 2.37323,1.62121 4.67411,4.77134 7.40833,5.64445 l -0.51338,-8.46667 -0.19217,-4.40972 -1.05833,0.52917 c 0.24208,-1.25122 1.33084,-2.77452 2.46944,-3.35139 m 6.52639,0.52916 v 0.35278 h -0.35278 v -0.35278 h 0.35278 m 33.86666,38.98195 c 2.17817,0.55031 5.58261,-0.50568 7.76112,-0.98348 8.35194,-1.83181 15.10876,-6.45681 19.0956,-14.18597 0.93756,-1.81763 2.16365,-3.59661 2.42384,-5.64444 -1.20512,0.57383 -1.9971,1.91278 -2.99861,2.78956 -1.51438,1.32576 -3.46444,2.4716 -5.11528,3.62237 -2.99762,2.08958 -6.74121,3.07063 -9.525,5.58252 -0.77632,0.70049 -1.72726,1.19465 -2.45107,1.9479 -0.61489,0.6399 -1.00813,1.49799 -1.78294,1.97798 -0.57743,0.35769 -1.2283,0.29948 -1.66358,-0.24785 -1.46097,-1.83701 1.60522,-5.64962 2.29047,-7.3822 1.33444,-3.37398 0.96129,-6.5337 0.96129,-10.05417 0,-1.87071 0.25773,-3.99736 -0.17639,-5.82083 -1.67813,0.87238 -2.22774,4.35649 -3.0423,5.99722 -1.60325,3.22933 -2.85456,6.83203 -3.40923,10.40695 -0.36134,2.32886 -0.27768,4.74574 -0.68583,7.05555 -0.30988,1.75373 -1.21927,3.24671 -1.68209,4.93889 M 43.529971,168.2255 c -0.48198,6.05646 -1.19733,11.5818 0.1783,17.63889 0.33526,1.47623 2.68909,4.95967 1.33965,6.25242 -0.58381,0.55927 -1.32972,0.0989 -1.8205,-0.34026 -1.38152,-1.2361 -2.50511,-2.69254 -3.93078,-3.89702 -3.14176,-2.6543 -7.22932,-3.72631 -10.58334,-6.14694 -2.61729,-1.88893 -4.1861,-4.87825 -6.70277,-6.80431 0.4395,1.74339 1.62125,3.34036 2.42575,4.93889 1.28068,2.54467 2.69193,5.31003 4.64573,7.4082 5.57311,5.98495 14.84289,9.34874 22.91463,9.34874 -0.24046,-2.34761 -1.99392,-4.48923 -2.41283,-6.87916 -0.68786,-3.92432 -0.68769,-7.91412 -1.5826,-11.81806 -0.75287,-3.28432 -2.42307,-6.79612 -4.11846,-9.70139 h -0.35278 m 91.545829,38.80556 c 2.10075,0 4.07356,-0.88558 6.17361,-0.67548 3.22826,0.32299 6.04392,2.10025 9.34862,2.40943 6.4785,0.60611 13.68199,-2.32567 18.69722,-6.21867 1.96119,-1.52234 4.30556,-4.05014 5.11528,-6.45139 -1.41105,0.21245 -1.8904,1.18964 -3.00556,1.90271 -1.85841,1.18834 -4.06439,2.63303 -6.16667,3.32567 -4.14088,1.36431 -8.57566,0.0401 -12.7,1.19715 -1.80362,0.506 -3.59756,1.69101 -5.46805,1.83208 -0.56016,0.0422 -1.84386,-0.0503 -1.98342,-0.77768 -0.0982,-0.51171 0.80397,-1.16878 1.10583,-1.48529 1.14281,-1.19828 2.13862,-2.49976 3.05292,-3.87798 1.8332,-2.76337 2.73282,-5.59703 3.87919,-8.64305 0.73312,-1.94801 1.79165,-3.87556 1.88298,-5.99722 -1.84825,0.48655 -3.72933,3.19005 -4.98925,4.58352 -1.2083,1.33638 -2.56818,2.38589 -3.61815,3.88314 -2.29461,3.27208 -3.87957,6.979 -6.21621,10.23056 -1.39987,1.948 -3.7496,2.87472 -5.10834,4.7625 M 55.171641,183.92411 c 0.38576,4.72301 2.51104,10.36272 5.11595,14.2875 1.18523,1.78577 4.0334,3.67902 4.58544,5.64445 -3.23135,0.40838 -5.53958,-1.12265 -8.64306,-1.63092 -4.21396,-0.69014 -8.78003,0.16968 -12.87639,-1.09303 -3.19566,-0.98508 -5.66441,-3.72899 -8.64305,-5.03716 0.88775,1.86831 2.41671,3.34804 3.70416,4.93889 1.1778,1.45535 2.56617,2.52495 4.05695,3.63815 10.27855,7.67522 21.88616,2.52788 33.3375,2.53546 -0.54259,-0.99169 -1.73381,-1.39764 -2.64584,-2.00302 -1.43605,-0.95322 -2.82655,-2.08882 -3.87347,-3.46504 -1.58077,-2.07798 -2.40767,-4.66479 -3.78624,-6.87916 -1.6232,-2.60734 -3.64821,-4.67076 -5.73005,-6.87985 -1.36921,-1.45289 -2.74934,-3.19747 -4.6019,-4.05627 m -4.93889,28.39862 c 1.51488,3.18112 7.31498,4.44006 10.40694,5.31644 6.07558,1.72203 13.96126,1.98732 19.93195,-0.24132 3.55115,-1.32551 6.51976,-3.67632 9.87778,-5.26594 3.2472,-1.53717 7.04552,-2.02019 10.583329,-1.57307 -0.46525,1.49147 -3.125479,2.26364 -4.409719,2.96199 -2.58437,1.40536 -4.83005,3.04905 -7.23195,4.67595 -1.2405,0.84024 -2.52323,1.30092 -3.57813,2.40942 -0.68426,0.71904 -3.72588,2.07546 -3.50709,3.18888 0.13945,0.70968 1.07838,1.51465 1.78661,1.11087 1.62034,-0.92379 3.25958,-3.45788 4.59047,-4.82211 1.77306,-1.81748 3.88335,-2.86564 5.99981,-4.27771 2.7893,-1.86097 7.175289,-4.36591 10.583329,-4.41652 2.53586,-0.0377 4.21737,1.11898 6.35,2.29033 3.71154,2.03857 7.35283,4.24549 10.75972,6.75926 1.78653,1.31818 2.93907,3.82475 4.93889,4.75992 1.0528,-2.19125 -2.02354,-3.33176 -3.35139,-4.59292 -2.67642,-2.54201 -5.75101,-5.09801 -8.99583,-6.89047 -1.62076,-0.89531 -4.3249,-1.35752 -5.46805,-2.80411 2.57328,0.27209 4.85388,-0.38967 7.40833,0.53869 4.5205,1.64287 8.24689,5.27699 12.87639,6.56178 5.46123,1.5156 11.76266,0.83175 17.28611,-0.0885 3.34842,-0.55784 9.93824,-1.29373 11.81805,-4.54255 -1.5909,0.23828 -3.00316,1.14545 -4.58611,1.47004 -2.90756,0.59621 -6.43758,0.3947 -9.34861,-0.11555 -5.92809,-1.03909 -11.64696,-3.293 -17.4625,-4.79026 -2.24561,-0.57815 -4.34325,-1.29799 -6.70278,-1.32605 -3.86532,-0.046 -7.81163,0.41514 -11.64166,0.93108 -1.53128,0.20627 -3.02914,0.73081 -4.58611,0.73141 -6.430229,0.002 -12.563709,-2.16409 -19.049999,-1.23486 -8.60708,1.23307 -17.03855,5.35284 -25.75278,5.56633 -1.4072,0.0345 -2.88437,0.0988 -4.23333,-0.36802 -1.76573,-0.61106 -3.37232,-1.82395 -5.29167,-1.92245 m 56.268049,5.82083 -2.99861,-0.17639 v -0.35278 c 1.31832,-0.31387 3.29194,0.39901 3.35139,-1.41111 -0.87051,0.002 -4.05929,-0.45762 -4.56542,0.28282 -0.29617,0.43329 -0.0215,1.49784 -0.0207,2.01024 8.1e-4,0.50085 -0.1951,1.58782 0.282,1.92762 0.65034,0.46317 1.08861,-0.60817 1.52136,-0.86575 0.9637,-0.57362 2.31224,0.0619 2.42997,-1.41465 m 1.05834,-1.94028 c 0.16407,1.55179 -0.71412,3.9796 1.23472,4.40972 l 0.17639,-1.5875 c 1.55375,0.11714 2.18682,1.73052 3.88055,1.23473 -1.02023,-1.76499 -1.83075,-2.15674 0.17639,-3.52778 v -0.35278 c -0.55584,-0.13233 -1.19902,-0.28395 -1.75694,-0.07 -1.09875,0.42144 -2.27186,2.26882 -2.3,-0.10643 h -1.41111 m -7.30203,0.3585 c -0.803609,0.61932 0.15395,2.00055 -0.998599,2.58145 -1.1032,0.55603 -2.42318,-1.56666 -2.98336,-0.88984 -0.50984,0.61601 0.16564,1.50629 0.70406,1.80146 1.02667,0.56284 2.73461,0.53682 3.646999,-0.23736 0.75974,-0.64464 0.83369,-1.62078 0.74897,-2.55247 -0.0497,-0.54685 -0.52416,-1.16095 -1.11807,-0.70324 m 6.77286,5.10956 c -0.21003,0.71054 -0.0862,1.39425 -0.20252,2.1134 -0.16756,1.03592 -1.60843,1.41129 -2.38724,0.75618 -1.13898,-0.95804 0.48212,-3.07118 -1.99635,-2.34041 0.18368,0.94128 -0.17289,1.94228 0.34189,2.81949 0.83894,1.42961 4.15569,1.51251 5.12453,0.14141 0.93913,-1.32905 0.72958,-3.17106 -0.88031,-3.49007 M 95.211911,226.081 v -2.11667 l 2.30012,2.00452 2.46238,-1.65174 c -0.17639,0.61551 0.0846,2.49278 1.128409,1.60479 0.95084,-0.80893 0.75605,-4.47864 -1.128409,-4.01802 -0.92942,0.22717 -1.4837,1.87427 -2.30884,1.87427 -1.27511,0 -1.60527,-2.38725 -3.30948,-1.64766 -1.59351,0.69155 -0.93047,3.9294 0.85582,3.95051 m 14.111109,-4.23333 c 0,1.51597 -0.65454,4.16607 1.41111,4.23333 l 0.17639,-2.46944 c 0.95627,0.48415 1.44633,1.63342 2.46944,2.01023 1.80934,0.66638 2.64887,-2.14497 1.75899,-3.34934 -0.60608,-0.82028 -1.2045,0.27917 -1.30128,0.8064 -0.0543,0.2958 -0.0813,0.58628 -0.10493,0.88548 -1.78079,-1.25525 -2.10659,-2.11666 -4.40972,-2.11666 z"
       id="path1" /></g></svg>
